<svg id="Layer_1" data-name="Layer 1" xmlns="http://www.w3.org/2000/svg" viewBox="0 0 709.95 212.5"><path d="M298.85,67.24l7.35-31.42h.16l7.44,31.42h15.67l9.19-29.42a25.57,25.57,0,0,0-.64,5.67c0,15.83,10.48,25.11,25.91,25.11,10.55,0,20.62-4.8,23.5-15.67H373c-1.44,3.43-5.12,5.19-8.87,5.19-6.56,0-10.32-4.23-10.56-10.71h34V67.32H403V2.24H387.51V38c-2.4-11.28-10.55-19.35-24-19.35-10.64,0-19.91,6.07-23.67,15.43L344.26,20H328.51l-7.68,30.54h-.16L313.72,20H298.93l-6.72,30.62h-.16L284.14,20H268.47l14.79,47.33,15.59-.08ZM363.61,29c5.19,0,8.87,4.4,9.19,9.68H353.61C354.49,32.94,358.17,29,363.61,29Z" transform="translate(0 0)"/><path d="M423.33,48.77c2,12,11.75,19.75,24.38,19.75,11,0,19.75-5.52,22.79-15.19,3.52,9.11,12.07,15.19,23.1,15.19,13.92,0,23.83-9.6,24.87-22.71V67.24H534V44.13c0-9.67,2.32-12.79,7.91-12.79,4.24,0,5.84,3.44,5.84,9V67.24h15.51V44.13c0-7.67.64-12.79,7.27-12.79,4,0,6.48,3,6.48,8.15V67.24H592.5V51.41c3,11,12.23,17.19,24.86,17.19,10.56,0,20.63-4.8,23.51-15.67H626.4c-1.44,3.43-5.12,5.19-8.88,5.19-6.55,0-10.31-4.23-10.55-10.71h34.7c.72-16-7.76-28.78-24.7-28.78-11.6,0-21.59,7.19-24.55,17.91-.32-8.48-3-17.91-16.63-17.91-6.39,0-11,2.64-14.79,7.67-2.56-5.75-7.83-7.67-13.75-7.67a15.66,15.66,0,0,0-13.51,7.83h-.16V20h-15v21.5c-1-13.11-10.95-22.86-24.87-22.86-11.11,0-19.66,6.23-23.1,15.43C468,23.74,458.51,18.63,447.79,18.63c-13.51,0-22.54,8.47-24.38,20.86V2.24H407.9V67.32h15.51l-.08-18.55ZM617.05,29c5.19,0,8.87,4.4,9.19,9.68H607.05C607.93,32.94,611.53,29,617.05,29ZM493.68,30.38c7.2,0,9.44,7.2,9.44,13.19s-2.32,13.11-9.44,13.11-9.43-7.11-9.43-13.11S486.49,30.38,493.68,30.38Zm-45.25,0a7.35,7.35,0,0,1,7.6,6.8h13.51a27.38,27.38,0,0,0-.72,6.39,25.65,25.65,0,0,0,.48,5H456.51c-.72,5-3.44,8.15-8.88,8.15-6.55,0-9.19-6.23-9.19-12.39C438.44,37.82,439.88,30.38,448.43,30.38Z" transform="translate(0 0)"/><path d="M399.1,138.87h15.51V108.49c0-6.8-1.27-18.31-17-18.31-5.68,0-12.08,3-14.87,7.84h-.16V91.54h-15v18.23c-2.31-11.43-11.67-19.51-24.38-19.51-11.83,0-20.79,7-23.82,17.27C317.56,96,307.48,90.26,296.13,90.26c-15.19,0-24.78,10.72-24.78,25.83,0,14.47,10.55,24.22,24.78,24.22,11.51,0,20.71-6.08,23.27-16.87,3.11,10,12,16.87,23.66,16.87,12.71,0,22.15-8.07,24.38-19.51v18.07H383V113.05c0-5.2,2.56-10.16,8.4-10.16,8.47,0,7.75,6.56,7.75,13v22.94Zm-94.26-18.63c-.71,5-3.43,8.16-8.87,8.16-6.56,0-9.19-6.24-9.19-12.39,0-6.56,1.36-13.92,10-13.92a7.35,7.35,0,0,1,7.6,6.8h14.47a27.52,27.52,0,0,0-.72,6.4,25.55,25.55,0,0,0,.48,5l-13.76-.08Zm38.22,8.16c-7.19,0-9.43-7.12-9.43-13.11s2.16-13.2,9.43-13.2,9.43,7.2,9.43,13.2S350.26,128.4,343.06,128.4Z" transform="translate(0 0)"/><path d="M583.39,77.23H567.88V91.54H560v7.68c-4.24-6.08-11.75-9-19.91-9-13.35,0-22.38,8.32-24.38,20.55-2.08-11.91-10.31-20.55-24.22-20.55-12.16,0-22.55,7.92-24.95,19.51v-1.2c0-6.8-1.28-18.31-17-18.31-5.67,0-12.07,3-14.87,7.84h-.16V91.54h-15v47.33H435V113.05c0-5.2,2.56-10.16,8.4-10.16,8.47,0,7.75,6.56,7.75,13v22.86h15.51V121c2.32,12.23,12,19.19,25.35,19.19,10.55,0,20.62-4.8,23.5-15.67H501c-1.44,3.44-5.12,5.2-8.87,5.2-6.56,0-10.32-4.24-10.56-10.72h34c1.36,12.8,11.43,21.19,24.62,21.19,12.64,0,22.39-7.28,23.83-19.91H549c-.72,5-3.44,8.16-8.88,8.16-6.55,0-9.19-6.24-9.19-12.39,0-6.56,1.36-13.92,10-13.92a7.35,7.35,0,0,1,7.6,6.8h15a20.81,20.81,0,0,0-2-7.28H568v21c0,12.79,3.35,16.71,16.55,16.71,2.79,0,5.67-.4,8.47-.48V127.52c-1.36,0-2.72.16-4,.16-3.35,0-5.51-.88-5.51-4.56V101.61h9.59v-10h-9.59l-.16-14.39Zm-101.86,33c.88-5.76,4.56-9.67,10-9.67,5.19,0,8.87,4.39,9.19,9.67Z" transform="translate(0 0)"/><rect x="596.02" y="73.79" width="15.51" height="11.83"/><rect x="596.02" y="91.54" width="15.51" height="47.33"/><path d="M695,91.54v5.92h-.16a13.72,13.72,0,0,0-12.64-7.28c-11.27,0-18.3,7.52-20.22,17.43-.08-6.87-2-17.43-17-17.43-5.68,0-12.07,3-14.87,7.84h-.16V91.54h-15v47.33H630.4V113.05c0-5.2,2.56-10.16,8.39-10.16,8.48,0,7.76,6.56,7.76,13v22.86H662V119.68c1.84,10.08,8.31,17.19,20.22,17.19a15.11,15.11,0,0,0,12.64-7H695v4.47c0,5.84-.72,11-8.16,11a12.87,12.87,0,0,1-5.68-1,5,5,0,0,1-2.63-4.08H663c1.83,12.63,12.23,15.11,23.26,15.11,22.15,0,23.67-14.55,23.67-22.31V91.54ZM685.72,125c-6.39,0-9-5.52-9-11.11,0-5.84,2.16-11.84,9-11.84s9.28,5.92,9.28,11.92S692.28,125,685.72,125Z" transform="translate(0 0)"/><rect x="363.05" y="145.35" width="15.51" height="11.83"/><path d="M545.89,161.82c-10.95,0-20.47,6.47-24,16.31-2.16-10.88-12.08-16.31-23-16.31-13.11,0-22,8-24.22,19.82v-1.52c0-6.79-1.28-18.3-17-18.3-5.68,0-12.08,3-14.87,7.83h-.16V163.1h-15v19.42c-2-12.07-10.24-20.78-24.23-20.78-11.75,0-21.82,7.35-24.7,18.38v-17H363.13v15.27c-2-11.12-12-16.63-23.11-16.63-15.19,0-24.78,10.71-24.78,25.82,0,.64.08,1.28.08,1.92-1.6-3.12-4.8-6.16-10.64-7.28-7.11-1.6-17.42-2.32-17.42-6.79,0-3.28,4.07-3.52,6.63-3.52a9.49,9.49,0,0,1,5,1.2,4.39,4.39,0,0,1,2,4.08h14.31c-.56-12.32-11.35-15.27-21.75-15.27-9.27,0-21.58,3.11-21.58,14.47,0,12.79,12.23,13,22,15.51,2.72.64,7.6,1.36,7.6,5s-4.24,5-7.28,5a10.11,10.11,0,0,1-5.75-1.6,6.2,6.2,0,0,1-2.56-5.27H271c.48,13.19,11.91,16.94,23.1,16.94,10.32,0,21.83-3.91,22.63-15.59C320,206,329,212,340.1,212c11.28,0,20.31-5.83,23.11-16.07v14.72h15.51V194.12c2.72,11.43,12.15,17.9,25.1,17.9,10.55,0,20.63-4.79,23.51-15.67H412.86c-1.44,3.44-5.12,5.2-8.88,5.2-6.55,0-10.31-4.24-10.55-10.71h34.38v19.91h15.51V184.92c0-5.2,2.55-10.15,8.39-10.15,8.48,0,7.76,6.55,7.76,13v22.87H475V193.32c2.31,11.43,11.91,18.78,24.22,18.78,11.11,0,20.07-5.67,22.95-15.75,3.35,10,12.39,15.75,24.38,15.75,10.55,0,20.63-4.79,23.51-15.67H555.56c-1.43,3.44-5.11,5.2-8.87,5.2-6.56,0-10.31-4.24-10.55-10.71h34.69C571.31,174.53,562.84,161.82,545.89,161.82ZM348.82,191.88c-.72,5-3.44,8.15-8.88,8.15-6.55,0-9.19-6.23-9.19-12.39,0-6.56,1.36-13.91,10-13.91a7.34,7.34,0,0,1,7.6,6.79h14.79v11.36ZM393.27,182c.88-5.75,4.56-9.67,10-9.67,5.2,0,8.88,4.4,9.2,9.67Zm114.33,9.92c-.72,5-3.44,8.15-8.88,8.15-6.55,0-9.19-6.23-9.19-12.39,0-6.56,1.36-13.91,10-13.91a7.34,7.34,0,0,1,7.6,6.79H521a26.16,26.16,0,0,0-.72,6.24,36.07,36.07,0,0,0,.4,5.2l-13.11-.08ZM535.9,182c.88-5.75,4.55-9.67,10-9.67,5.2,0,8.87,4.4,9.19,9.67Z" transform="translate(0 0)"/><path d="M106.25,212.5A106.25,106.25,0,1,1,212.5,106.25,106.37,106.37,0,0,1,106.25,212.5Zm0-209.3A103.06,103.06,0,1,0,209.31,106.25,103.17,103.17,0,0,0,106.25,3.2Z" transform="translate(0 0)"/><path d="M168.61,150.22a44,44,0,1,1,44-44A44,44,0,0,1,168.61,150.22Zm0-84.74a40.78,40.78,0,1,0,40.78,40.77A40.82,40.82,0,0,0,168.61,65.48Z" transform="translate(0 0)"/><path d="M137.67,181.16a74.91,74.91,0,1,1,74.91-74.91A75,75,0,0,1,137.67,181.16Zm0-146.62a71.72,71.72,0,1,0,71.72,71.71A71.79,71.79,0,0,0,137.67,34.54Z" transform="translate(0 0)"/></svg>